<?xml version="1.0" encoding="UTF-8"?>
<svg width="26px" height="27px" viewBox="0 0 26 27" version="1.1" xmlns="http://www.w3.org/2000/svg" xmlns:xlink="http://www.w3.org/1999/xlink">
    <!-- Generator: Sketch 63.1 (92452) - https://sketch.com -->
    <title>Group 7</title>
    <desc>Created with Sketch.</desc>
    <g id="Page-1" stroke="none" stroke-width="1" fill="none" fill-rule="evenodd">
        <g id="D-Available-Homes" transform="translate(-341.000000, -1360.000000)" fill="#B3A774" fill-rule="nonzero">
            <g id="Group-7" transform="translate(341.000000, 1360.000000)">
                <path d="M21.6666667,18.1952896 L21.6666667,4.31752069 L1.08333333,4.31752069 L1.08333333,6.98632239 L18.4166667,6.98632239 C18.7162083,6.98632239 18.9583333,7.22544702 18.9583333,7.52008274 L18.9583333,18.1952896 C18.9583333,18.490459 17.875,18.490459 17.875,18.1952896 L17.875,8.05384307 L0.541666667,8.05384307 C0.242125,8.05384307 0,7.8152522 0,7.52008274 L0,3.78376034 C0,3.48912464 0.242125,3.25 0.541666667,3.25 L22.2083333,3.25 C22.507875,3.25 22.75,3.48912464 22.75,3.78376034 L22.75,18.1952896 C22.75,18.490459 21.6666667,18.490459 21.6666667,18.1952896" id="Fill-143"></path>
                <path d="M22.7458492,26.7471265 L18.5328863,26.7471265 C18.2000622,26.7471265 17.9310345,26.485864 17.9310345,26.1626466 L17.9310345,22.6557678 C17.9310345,22.3331349 19.1347382,22.3331349 19.1347382,22.6557678 L19.1347382,25.5781668 L22.1439974,25.5781668 L22.1439974,22.6557678 C22.1439974,22.3331349 23.3477011,22.3331349 23.3477011,22.6557678 L23.3477011,26.1626466 C23.3477011,26.485864 23.0786734,26.7471265 22.7458492,26.7471265" id="Fill-144"></path>
                <path d="M7.46296296,4.09094485 L7.46296296,1.16884139 L4.4537037,1.16884139 L4.4537037,4.09094485 C4.4537037,4.4141295 3.25,4.4141295 3.25,4.09094485 L3.25,0.584420693 C3.25,0.261820471 3.51902777,6.66133815e-14 3.85185186,6.66133815e-14 L8.06481481,6.66133815e-14 C8.39763889,6.66133815e-14 8.66666667,0.261820471 8.66666667,0.584420693 L8.66666667,4.09094485 C8.66666667,4.4141295 7.46296296,4.4141295 7.46296296,4.09094485" id="Fill-145"></path>
                <path d="M25.4583333,22.75 L3.79166667,22.75 C3.492125,22.75 3.25,22.5114028 3.25,22.2162256 L3.25,7.80431595 C3.25,7.50967246 4.33333333,7.50967246 4.33333333,7.80431595 L4.33333333,21.6824511 L24.9166667,21.6824511 L24.9166667,19.013579 L7.58333333,19.013579 C7.28379167,19.013579 7.04166667,18.7749818 7.04166667,18.4798046 L7.04166667,7.80431595 C7.04166667,7.50967246 8.125,7.50967246 8.125,7.80431595 L8.125,17.9460301 L25.4583333,17.9460301 C25.757875,17.9460301 26,18.1851611 26,18.4798046 L26,22.2162256 C26,22.5114028 25.757875,22.75 25.4583333,22.75" id="Fill-146"></path>
            </g>
        </g>
    </g>
</svg>