<?xml version="1.0" encoding="UTF-8"?>
<svg width="26px" height="19px" viewBox="0 0 26 19" version="1.1" xmlns="http://www.w3.org/2000/svg" xmlns:xlink="http://www.w3.org/1999/xlink">
    <!-- Generator: Sketch 63.1 (92452) - https://sketch.com -->
    <title>icon-beds-blue</title>
    <desc>Created with Sketch.</desc>
    <g id="Page-1" stroke="none" stroke-width="1" fill="none" fill-rule="evenodd">
        <g id="D-Available-Homes" transform="translate(-186.000000, -1362.000000)" fill="#B3A774" fill-rule="nonzero">
            <g id="icon-beds-blue" transform="translate(186.000000, 1362.000000)">
                <path d="M1.36597015,14.9788099 L1.36053732,11.3261823 C1.36053732,10.6281263 1.9259403,10.0608828 2.62173135,10.0608828 L23.341403,10.0608828 C24.037194,10.0608828 24.602597,10.6281263 24.602597,11.3261823 L24.6029851,14.9788099 L1.36597015,14.9788099 Z M25.960806,18.4465091 L25.960806,11.3261823 C25.960806,9.87673304 24.7861493,8.69825258 23.341403,8.69825258 L2.62173135,8.69825258 C1.17737313,8.69825258 0.00232835821,9.87673304 0.00232835821,11.3261823 L0,18.4465091 L1.35820896,18.4465091 L1.35820896,16.3535091 L24.602597,16.3535091 L24.602597,18.4465091 L25.960806,18.4465091 L25.960806,18.4465091 Z" id="Fill-54"></path>
                <path d="M2.82895522,7.53028385 L2.82895522,3.40657552 C2.82895522,2.27948568 3.74283582,1.36263021 4.86665671,1.36263021 L21.098806,1.36263021 C22.2218507,1.36263021 23.1361194,2.27948568 23.1361194,3.40657552 L23.1361194,7.53028385 L23.2199403,7.53028385 C23.6673732,7.53028385 24.0946268,7.61009505 24.4943284,7.74986198 L24.4943284,3.40657552 C24.4943284,1.52848177 22.970806,0 21.098806,0 L4.86665671,0 C2.9938806,0 1.47074627,1.52848177 1.47074627,3.40657552 L1.47074627,7.74908334 C1.8700597,7.61009505 2.29653732,7.53028385 2.74319403,7.53028385 L2.82895522,7.53028385" id="Fill-55"></path>
                <path d="M12.1951642,7.53028385 L12.1951642,4.79801563 C12.1951642,3.77837891 11.368597,2.94873177 10.3526567,2.94873177 L6.70023881,2.94873177 C5.68391045,2.94873177 4.85695522,3.77837891 4.85695522,4.79801563 L4.85695522,7.53028385 L6.21516418,7.53028385 L6.21516418,4.79801563 C6.21516418,4.53405469 6.43713433,4.31136198 6.70023881,4.31136198 L10.3526567,4.31136198 C10.6157612,4.31136198 10.8377313,4.53405469 10.8377313,4.79801563 L10.8377313,7.53028385 L12.1951642,7.53028385" id="Fill-56"></path>
                <path d="M21.1061791,7.53028385 L21.1061791,4.79801563 C21.1061791,3.77837891 20.2792239,2.94873177 19.2628955,2.94873177 L15.6112538,2.94873177 C14.5949254,2.94873177 13.7679701,3.77837891 13.7679701,4.79801563 L13.7679701,7.53028385 L15.1261791,7.53028385 L15.1261791,4.79801563 C15.1261791,4.53405469 15.3481493,4.31136198 15.6112538,4.31136198 L19.2628955,4.31136198 C19.526,4.31136198 19.7479701,4.53405469 19.7479701,4.79801563 L19.7479701,7.53028385 L21.1061791,7.53028385" id="Fill-57"></path>
            </g>
        </g>
    </g>
</svg>