<?xml version="1.0" encoding="UTF-8"?>
<svg width="28px" height="22px" viewBox="0 0 28 22" version="1.1" xmlns="http://www.w3.org/2000/svg" xmlns:xlink="http://www.w3.org/1999/xlink">
    <!-- Generator: Sketch 63.1 (92452) - https://sketch.com -->
    <title>Group</title>
    <desc>Created with Sketch.</desc>
    <g id="Page-1" stroke="none" stroke-width="1" fill="none" fill-rule="evenodd">
        <g id="D-Available-Homes" transform="translate(-256.000000, -1360.000000)" fill="#B3A774" fill-rule="nonzero">
            <g id="Group" transform="translate(256.000000, 1360.000000)">
                <path d="M26.6014185,7.00943349 C26.6014185,7.24792346 26.400822,7.44897386 26.1626636,7.44897386 L1.82774614,7.44897386 C1.59158568,7.44897386 1.39178833,7.24792346 1.39178833,7.00943349 L1.39178833,6.82672846 C1.39178833,6.5882385 1.59158568,6.38718808 1.82774614,6.38718808 L26.1626636,6.38718808 C26.400822,6.38718808 26.6014185,6.5882385 26.6014185,6.82672846 L26.6014185,7.00943349 Z M26.1726535,5.07755245 L26.1726535,2.51743568 C26.1726535,1.12917698 25.0677741,4.79616347e-14 23.7087525,4.79616347e-14 C22.3509298,4.79616347e-14 21.2456508,1.12917698 21.2456508,2.51743568 C21.2456508,2.87947617 21.5585335,3.17262789 21.9449415,3.17262789 C22.3305504,3.17262789 22.6442323,2.87947617 22.6442323,2.51743568 C22.6442323,1.86299225 23.1313382,1.31038443 23.7087525,1.31038443 C24.2865665,1.31038443 24.774072,1.86299225 24.774072,2.51743568 L24.774072,5.07680366 L1.82774614,5.07680366 C0.819968318,5.07680366 0,5.86191113 0,6.82672846 L0,7.00943349 C0,7.97462522 0.819968318,8.75935826 1.82774614,8.75935826 L26.1626636,8.75935826 C27.1756361,8.75935826 28,7.97462522 28,7.00943349 L28,6.82672846 C28,5.86528069 27.1812305,5.08354278 26.1726535,5.07755245 L26.1726535,5.07755245 Z" id="Fill-58"></path>
                <path d="M3.06697537,18.520299 L2.26253844,20.1865595 C2.08867285,20.5728311 2.1867147,21.0709914 2.48013493,21.2994117 C2.57852945,21.3755517 2.68679868,21.4117647 2.79330458,21.4117647 C3.00420037,21.4117647 3.2101588,21.2687699 3.32512874,21.0120293 L4.12991834,19.3457688 C4.14896244,19.3030561 4.16342185,19.2584863 4.17647059,19.2139165 C3.79347255,19.0147452 3.42916596,18.7719327 3.08214011,18.4919786 L3.06697537,18.520299" id="Fill-59"></path>
                <path d="M23.1097016,18.520299 L23.0938235,18.4919786 C22.7469756,18.7714684 22.3824853,19.0142809 22,19.2139165 C22.0123496,19.258022 22.0268163,19.3025918 22.0462229,19.3453046 L22.8503596,21.0120293 C22.9653874,21.2687699 23.1714497,21.4117647 23.3831575,21.4117647 C23.4900699,21.4117647 23.597688,21.3755517 23.6961321,21.2994117 C23.9897002,21.0714558 24.0874387,20.5728311 23.914544,20.1865595 L23.1097016,18.520299" id="Fill-60"></path>
                <path d="M24.6103988,12.0791787 C24.6103988,14.8766909 22.2508561,17.1519906 19.3493689,17.1519906 L8.64824891,17.1519906 C5.74755579,17.1519906 3.387616,14.8766909 3.387616,12.0791787 L3.387616,10.7058824 L2,10.7058824 L2,12.0791787 C2,15.6155985 4.98129001,18.4919786 8.64824891,18.4919786 L19.3493689,18.4919786 C23.0171219,18.4919786 26,15.6155985 26,12.0791787 L26,10.7058824 L24.6103988,10.7058824 L24.6103988,12.0791787" id="Fill-61"></path>
            </g>
        </g>
    </g>
</svg>